<?xml version="1.0" encoding="UTF-8"?>
<svg xmlns="http://www.w3.org/2000/svg" viewBox="0 0 24 24" width="24" height="24" role="img">
  <defs>
    <linearGradient id="coinDark" x1="15%" y1="0%" x2="85%" y2="100%">
      <stop offset="0%" stop-color="#ffdd75"/>
      <stop offset="45%" stop-color="#d89a1c"/>
      <stop offset="100%" stop-color="#8c5c00"/>
    </linearGradient>
  </defs>
  <rect width="24" height="24" rx="4" fill="#0d0c0b"/>
  <circle cx="12" cy="12" r="10.5" fill="url(#coinDark)" stroke="#f6c04b" stroke-width="0.8"/>
  <circle cx="12" cy="12" r="9" fill="none" stroke="#ffe9b8" stroke-width="0.5" stroke-dasharray="0.7 0.8"/>
  <path d="M12 6.2 7.8 16h2l.9-2.2h2.7l.9 2.2h2.2L12 6.2zm.3 5.7h-1.6l.8-2z" fill="#0a0803"/>
  <path d="M7.4 12.5c-.6 0-1.1-.5-1.1-1.1 0-.9.5-1.8 1.3-2.4.2-.2.6-.1.8.1.2.2.1.6-.1.8-.4.3-.7.8-.7 1.3 0 .2-.2.4-.4.4zm9.2 0c-.2 0-.4-.2-.4-.4 0-.5-.2-1-.7-1.3-.3-.2-.3-.6-.1-.8.2-.2.6-.3.8-.1.8.6 1.3 1.4 1.3 2.4 0 .6-.5 1.1-1.1 1.1z" fill="#0a0803" opacity="0.82"/>
  <text x="12" y="19" font-family="'Noto Sans', 'Segoe UI', sans-serif" font-size="3.4" text-anchor="middle" fill="#0b0803">DRACHMA</text>
</svg>
