<?xml version="1.0" encoding="UTF-8"?>
<svg xmlns="http://www.w3.org/2000/svg" viewBox="0 0 24 24" width="24" height="24" role="img">
  <defs>
    <linearGradient id="golden" x1="0%" y1="0%" x2="100%" y2="100%">
      <stop offset="0%" stop-color="#fff4b3"/>
      <stop offset="50%" stop-color="#f6c342"/>
      <stop offset="100%" stop-color="#b47b07"/>
    </linearGradient>
    <linearGradient id="rim" x1="0%" y1="0%" x2="0%" y2="100%">
      <stop offset="0%" stop-color="#ffeaa7"/>
      <stop offset="100%" stop-color="#c0881f"/>
    </linearGradient>
  </defs>
  <circle cx="12" cy="12" r="11" fill="url(#rim)" stroke="#8a5a00" stroke-width="0.6"/>
  <circle cx="12" cy="12" r="9.2" fill="url(#golden)" stroke="#fdf6c5" stroke-width="0.8"/>
  <path d="M12 4.6c2.9 0 5 1.7 5 4.1 0 2.6-2.2 4.8-5.6 7.1-.6.4-1.4.4-2-.1-.7-.5-.8-1.4-.2-2l.8-.8c-.5-.1-1-.3-1.4-.6-1-.6-1.7-1.7-1.7-3 0-2.4 2.2-4.7 5.1-4.7zm-1.9 5.1c0 1 .9 1.6 1.9 1.6.9 0 1.8-.6 1.8-1.6s-.9-1.6-1.8-1.6c-1 0-1.9.7-1.9 1.6z" fill="#5a3600" opacity="0.7"/>
  <text x="12" y="18" font-family="'Noto Sans', 'Segoe UI', sans-serif" font-size="3.6" text-anchor="middle" fill="#3b2400" letter-spacing="0.4">DRM</text>
  <circle cx="12" cy="12" r="10.3" fill="none" stroke="#fff3c4" stroke-width="0.4" stroke-dasharray="0.5 0.9"/>
</svg>
